# xmcd CD database file
# Copyright (C) 1993-1998 Ti Kan
# 
# Track frame offsets:
#     150
#     12295
#     29770
#     44690
#     64945
#     76080
#     89423
#     106600
#     121423
#     135880
#     151543
#     166608
# 
# Disc length: 2402 seconds
# 
# Revision: 1
# Processed by: cddbd v1.4b41PL1 Copyright (c) Steve Scherf et al.
# Submitted via: DiscPlay 4.0.4
# 
DISCID=8509600c
DTITLE=Roy Black - Fremde Erde
DYEAR=1900
DGENRE=
TTITLE0=Fremde Erde
TTITLE1=Blue
TTITLE2=Du geh rst an meine Seite
TTITLE3=Ich kann dich nur lieben
TTITLE4=Du bist nicht allein
TTITLE5=Ich denk an dich
TTITLE6=Wilde Kirschen bl hen fr h
TTITLE7=Was geschieht mit mir
TTITLE8=Erz hl mir nichts von deiner Liebe
TTITLE9=Da hab ich Gl ck gehabt
TTITLE10=Das M dchen Carina
TTITLE11=Ganz in Weiss
EXTD=
EXTT0=
EXTT1=
EXTT2=
EXTT3=
EXTT4=
EXTT5=
EXTT6=
EXTT7=
EXTT8=
EXTT9=
EXTT10=
EXTT11=
PLAYORDER=
